<svg width="24" height="24" viewBox="0 0 24 24" fill="none" xmlns="http://www.w3.org/2000/svg">
<path d="M3.35288 8.95043C4.00437 6.17301 6.17301 4.00437 8.95043 3.35288C10.9563 2.88237 13.0437 2.88237 15.0496 3.35288C17.827 4.00437 19.9956 6.17301 20.6471 8.95044C21.1176 10.9563 21.1176 13.0437 20.6471 15.0496C19.9956 17.827 17.827 19.9956 15.0496 20.6471C13.0437 21.1176 10.9563 21.1176 8.95044 20.6471C6.17301 19.9956 4.00437 17.827 3.35288 15.0496C2.88237 13.0437 2.88237 10.9563 3.35288 8.95043Z" stroke="url(#paint0_linear_3637_22299)" stroke-width="1.5"/>
<path d="M12 8.5L12 15.5M12 15.5L14.5 13M12 15.5L9.5 13" stroke="url(#paint1_linear_3637_22299)" stroke-width="1.5" stroke-linecap="round" stroke-linejoin="round"/>
<defs>
<linearGradient id="paint0_linear_3637_22299" x1="28.3565" y1="30.4576" x2="0.301862" y2="28.2012" gradientUnits="userSpaceOnUse">
<stop stop-color="#C79D51"/>
<stop offset="1" stop-color="#FCDCA1"/>
</linearGradient>
<linearGradient id="paint1_linear_3637_22299" x1="6.87289" y1="18.3609" x2="8.09388" y2="7.51763" gradientUnits="userSpaceOnUse">
<stop stop-color="#C79D51"/>
<stop offset="1" stop-color="#FCDCA1"/>
</linearGradient>
</defs>
</svg>
