<svg width="42" height="42" viewBox="0 0 42 42" fill="none" xmlns="http://www.w3.org/2000/svg">
<path d="M38.0625 6.60352H28.6781C26.6643 6.60352 24.6955 7.18184 23.0016 8.27285L21 9.55664L18.9984 8.27285C17.3062 7.18205 15.3352 6.60244 13.3219 6.60352H3.9375C3.21152 6.60352 2.625 7.19004 2.625 7.91602V31.2129C2.625 31.9389 3.21152 32.5254 3.9375 32.5254H13.3219C15.3357 32.5254 17.3045 33.1037 18.9984 34.1947L20.8195 35.3678C20.8729 35.4006 20.9344 35.4211 20.9959 35.4211C21.0574 35.4211 21.1189 35.4047 21.1723 35.3678L22.9934 34.1947C24.6914 33.1037 26.6643 32.5254 28.6781 32.5254H38.0625C38.7885 32.5254 39.375 31.9389 39.375 31.2129V7.91602C39.375 7.19004 38.7885 6.60352 38.0625 6.60352ZM13.3219 29.5723H5.57812V9.55664H13.3219C14.7738 9.55664 16.1848 9.9709 17.4029 10.7543L19.4045 12.0381L19.6875 12.2227V31.1719C17.7352 30.1219 15.5531 29.5723 13.3219 29.5723ZM36.4219 29.5723H28.6781C26.4469 29.5723 24.2648 30.1219 22.3125 31.1719V12.2227L22.5955 12.0381L24.5971 10.7543C25.8152 9.9709 27.2262 9.55664 28.6781 9.55664H36.4219V29.5723ZM16.2791 14.8066H8.6584C8.49844 14.8066 8.36719 14.9461 8.36719 15.1143V16.96C8.36719 17.1281 8.49844 17.2676 8.6584 17.2676H16.275C16.435 17.2676 16.5662 17.1281 16.5662 16.96V15.1143C16.5703 14.9461 16.4391 14.8066 16.2791 14.8066ZM25.4297 15.1143V16.96C25.4297 17.1281 25.5609 17.2676 25.7209 17.2676H33.3375C33.4975 17.2676 33.6287 17.1281 33.6287 16.96V15.1143C33.6287 14.9461 33.4975 14.8066 33.3375 14.8066H25.7209C25.5609 14.8066 25.4297 14.9461 25.4297 15.1143ZM16.2791 20.5488H8.6584C8.49844 20.5488 8.36719 20.6883 8.36719 20.8564V22.7022C8.36719 22.8703 8.49844 23.0098 8.6584 23.0098H16.275C16.435 23.0098 16.5662 22.8703 16.5662 22.7022V20.8564C16.5703 20.6883 16.4391 20.5488 16.2791 20.5488ZM33.3416 20.5488H25.7209C25.5609 20.5488 25.4297 20.6883 25.4297 20.8564V22.7022C25.4297 22.8703 25.5609 23.0098 25.7209 23.0098H33.3375C33.4975 23.0098 33.6287 22.8703 33.6287 22.7022V20.8564C33.6328 20.6883 33.5016 20.5488 33.3416 20.5488Z" fill="#1D326D"/>
</svg>
