<svg width="42" height="42" viewBox="0 0 42 42" fill="none" xmlns="http://www.w3.org/2000/svg">
<path d="M29.0325 15.75H26.25V7C26.25 6.0375 25.4625 5.25 24.5 5.25H17.5C16.5375 5.25 15.75 6.0375 15.75 7V15.75H12.9675C11.41 15.75 10.6225 17.64 11.725 18.7425L19.7575 26.775C20.44 27.4575 21.5425 27.4575 22.225 26.775L30.2575 18.7425C31.36 17.64 30.59 15.75 29.0325 15.75ZM8.75 33.25C8.75 34.2125 9.5375 35 10.5 35H31.5C32.4625 35 33.25 34.2125 33.25 33.25C33.25 32.2875 32.4625 31.5 31.5 31.5H10.5C9.5375 31.5 8.75 32.2875 8.75 33.25Z" fill="#1D326D"/>
</svg>
