<svg width="436" height="364" viewBox="0 0 436 364" fill="none" xmlns="http://www.w3.org/2000/svg">
<g clip-path="url(#clip0_3251_18118)">
<path d="M20.2596 346.853C26.3074 358.07 39.1429 362.885 39.1429 362.885C39.1429 362.885 42.1731 349.514 36.1253 338.298C30.0775 327.081 17.242 322.266 17.242 322.266C17.242 322.266 14.2119 335.637 20.2596 346.853Z" fill="#1D326D"/>
<path d="M24.4163 343.163C35.3349 349.733 39.5401 362.782 39.5401 362.782C39.5401 362.782 26.0425 365.18 15.1238 358.61C4.20513 352.04 0 338.991 0 338.991C0 338.991 13.4976 336.594 24.4163 343.163Z" fill="#C79D51"/>
<path d="M269.214 17.4746H201.089V18.4479H269.214V17.4746Z" fill="#F2F2F2"/>
<path d="M250.724 18.2046H249.75V27.2076H250.724V18.2046Z" fill="#F2F2F2"/>
<path d="M221.04 18.2046H220.067V27.2076H221.04V18.2046Z" fill="#F2F2F2"/>
<path d="M303.763 64.1929H235.638V65.1662H303.763V64.1929Z" fill="#F2F2F2"/>
<path d="M255.103 55.4331H254.129V64.4361H255.103V55.4331Z" fill="#F2F2F2"/>
<path d="M284.786 55.4331H283.813V64.4361H284.786V55.4331Z" fill="#F2F2F2"/>
<path d="M394.273 86.0923H326.148V87.0656H394.273V86.0923Z" fill="#F2F2F2"/>
<path d="M345.611 77.3325H344.638V86.3355H345.611V77.3325Z" fill="#F2F2F2"/>
<path d="M375.295 77.3325H374.322V86.3355H375.295V77.3325Z" fill="#F2F2F2"/>
<path d="M387.46 311.898H319.335V312.871H387.46V311.898Z" fill="#F2F2F2"/>
<path d="M338.799 303.138H337.826V312.141H338.799V303.138Z" fill="#F2F2F2"/>
<path d="M368.483 303.138H367.509V312.141H368.483V303.138Z" fill="#F2F2F2"/>
<path d="M271.161 155.683H203.036V156.656H271.161V155.683Z" fill="#F2F2F2"/>
<path d="M222.5 146.923H221.527V155.926H222.5V146.923Z" fill="#F2F2F2"/>
<path d="M252.184 146.923H251.21V155.926H252.184V146.923Z" fill="#F2F2F2"/>
<path d="M292.572 272.966H224.447V273.939H292.572V272.966Z" fill="#F2F2F2"/>
<path d="M243.911 264.206H242.938V273.209H243.911V264.206Z" fill="#F2F2F2"/>
<path d="M273.594 264.206H272.621V273.209H273.594V264.206Z" fill="#F2F2F2"/>
<path d="M401.572 237.44H333.447V238.414H401.572V237.44Z" fill="#F2F2F2"/>
<path d="M352.911 228.681H351.938V237.684H352.911V228.681Z" fill="#F2F2F2"/>
<path d="M382.594 228.681H381.621V237.684H382.594V228.681Z" fill="#F2F2F2"/>
<path d="M176.181 341.718H60.9595V340.889H175.352V300.682H70.6459L65.5594 290.084L66.3068 289.726L71.1675 299.853H176.181V341.718Z" fill="#2F2E41"/>
<path d="M76.2941 362.028C81.1011 362.028 84.998 358.131 84.998 353.324C84.998 348.516 81.1011 344.619 76.2941 344.619C71.4872 344.619 67.5903 348.516 67.5903 353.324C67.5903 358.131 71.4872 362.028 76.2941 362.028Z" fill="#3F3D56"/>
<path d="M162.089 362.028C166.896 362.028 170.793 358.131 170.793 353.324C170.793 348.516 166.896 344.619 162.089 344.619C157.282 344.619 153.385 348.516 153.385 353.324C153.385 358.131 157.282 362.028 162.089 362.028Z" fill="#3F3D56"/>
<path d="M263.22 173.843C266.196 173.843 268.608 171.431 268.608 168.455C268.608 165.479 266.196 163.066 263.22 163.066C260.244 163.066 257.831 165.479 257.831 168.455C257.831 171.431 260.244 173.843 263.22 173.843Z" fill="#3F3D56"/>
<path d="M188.504 287.003H58.9946L30.9717 195.398H217.364L217.194 195.937L188.504 287.003ZM59.6078 286.174H187.896L216.234 196.227H32.092L59.6078 286.174Z" fill="#2F2E41"/>
<path d="M178.395 282.236H64.6414L40.0278 200.993H203.742L203.594 201.472L178.395 282.236Z" fill="#F2F2F2"/>
<path d="M219.687 187.213L218.885 187.001L224.355 166.382H256.174V167.211H224.993L219.687 187.213Z" fill="#2F2E41"/>
<path d="M208.05 223.169H40.0278V223.998H208.05V223.169Z" fill="#2F2E41"/>
<path d="M198.427 253.711H49.3706V254.54H198.427V253.711Z" fill="#2F2E41"/>
<path d="M124.58 195.812H123.751V286.589H124.58V195.812Z" fill="#2F2E41"/>
<path d="M161.693 195.787L155.742 286.561L156.57 286.615L162.52 195.841L161.693 195.787Z" fill="#2F2E41"/>
<path d="M86.656 195.786L85.8286 195.84L91.7445 286.616L92.5719 286.562L86.656 195.786Z" fill="#2F2E41"/>
<path d="M436 362.554H0V363.527H436V362.554Z" fill="#2F2E41"/>
<path d="M289.731 30.1115C289.731 30.1115 296.845 50.3592 292.467 53.4742C288.09 56.5893 307.241 82.0286 307.241 82.0286L330.223 75.7986L317.638 54.5126C317.638 54.5126 315.996 33.2265 315.996 30.1115C315.996 26.9965 289.731 30.1115 289.731 30.1115Z" fill="#A0616A"/>
<path opacity="0.1" d="M289.731 30.1115C289.731 30.1115 296.845 50.3592 292.467 53.4742C288.09 56.5893 307.241 82.0286 307.241 82.0286L330.223 75.7986L317.638 54.5126C317.638 54.5126 315.996 33.2265 315.996 30.1115C315.996 26.9965 289.731 30.1115 289.731 30.1115Z" fill="black"/>
<path d="M277.791 174.441C277.791 174.441 275.715 200.4 277.791 213.898C279.868 227.397 282.982 264.777 282.982 264.777C282.982 264.777 282.982 335.384 294.403 336.422C305.824 337.461 314.13 338.499 315.168 334.346C316.206 330.192 309.977 328.116 313.092 326.039C316.206 323.962 317.245 316.694 313.092 308.387C308.939 300.081 313.092 215.975 313.092 215.975L332.818 268.93C332.818 268.93 334.895 312.541 336.971 318.771C339.048 325.001 334.895 336.422 342.163 337.461C349.43 338.499 357.736 332.269 361.889 330.192C366.042 328.116 355.66 328.116 357.736 327.077C359.813 326.039 366.042 322.924 363.966 321.886C361.889 320.847 359.813 271.007 359.813 271.007C359.813 271.007 354.103 164.577 346.835 160.423C339.567 156.27 334.895 163.424 334.895 163.424L277.791 174.441Z" fill="#1D326D"/>
<path d="M296.48 332.27V340.576C296.48 340.576 287.135 363.157 296.48 363.157C305.824 363.157 313.092 365.496 313.092 362.381V334.346L296.48 332.27Z" fill="#2F2E41"/>
<path d="M357.737 332.254V340.561C357.737 340.561 367.081 363.141 357.737 363.141C348.392 363.141 341.125 365.481 341.125 362.366V334.331L357.737 332.254Z" fill="#2F2E41"/>
<path d="M304.267 45.1674C314.588 45.1674 322.955 36.7996 322.955 26.4773C322.955 16.155 314.588 7.78711 304.267 7.78711C293.945 7.78711 285.578 16.155 285.578 26.4773C285.578 36.7996 293.945 45.1674 304.267 45.1674Z" fill="#A0616A"/>
<path d="M298.556 61.2622C298.556 61.2622 303.748 76.8373 312.054 73.7223L320.36 70.6073L334.895 170.288C334.895 170.288 323.475 186.902 306.862 176.518C290.25 166.135 298.556 61.2622 298.556 61.2622Z" fill="white"/>
<path d="M313.092 58.147L317.764 48.2827C317.764 48.2827 345.278 61.262 349.431 65.4154C353.584 69.5687 353.584 75.7988 353.584 75.7988L346.316 101.757C346.316 101.757 348.392 158.866 348.392 160.943C348.392 163.02 355.66 174.441 350.469 170.288C345.278 166.135 344.239 161.981 340.086 168.211C335.933 174.441 326.589 181.71 326.589 181.71L313.092 58.147Z" fill="#C79D51"/>
<path d="M349.43 132.908L346.315 161.981C346.315 161.981 327.627 178.595 331.78 179.633C335.933 180.671 338.009 176.518 338.009 176.518C338.009 176.518 345.277 183.786 349.43 179.633C353.583 175.48 363.966 136.023 363.966 136.023L349.43 132.908Z" fill="#A0616A"/>
<path d="M304.665 0.0632017C300.522 -0.0849198 296.088 -0.15819 292.595 2.07463C290.988 3.19518 289.578 4.57525 288.424 6.15836C285.022 10.4596 282.082 15.8715 283.346 21.2082L284.814 20.6357C284.814 22.0602 284.497 23.4669 283.887 24.754C284.093 24.153 284.786 25.1246 284.6 25.7326L282.983 31.0374C285.641 30.0629 288.948 32.0359 289.352 34.838C289.537 28.6764 290.176 21.611 295.174 18.0032C297.694 16.1837 300.884 15.6283 303.953 15.1351C306.784 14.6801 309.752 14.2462 312.464 15.1783C315.176 16.1105 317.485 18.8842 316.871 21.6853C318.121 21.2545 319.52 22.126 320.137 23.2954C320.755 24.4648 320.788 25.8442 320.806 27.1667C322.139 28.1088 323.656 26.2381 324.199 24.6989C325.474 21.0858 326.608 17.2398 325.921 13.4704C325.234 9.701 322.163 6.09877 318.332 6.08598C318.797 5.57516 319.045 4.90348 319.023 4.213L315.866 3.94617C316.667 3.83265 317.405 3.44392 317.951 2.84656C316.683 4.24175 306.715 0.136496 304.665 0.0632017Z" fill="#2F2E41"/>
<path d="M303.747 55.0326C303.747 55.0326 295.295 46.7494 292.253 47.2568C289.211 47.7642 285.058 55.0326 285.058 55.0326C285.058 55.0326 260.14 63.3393 261.179 71.646C262.217 79.9528 273.638 120.448 273.638 120.448C273.638 120.448 282.982 169.25 274.676 174.442C266.37 179.634 314.129 193.132 315.168 186.902C316.206 180.672 318.282 118.371 315.168 109.026C312.053 99.6813 303.747 55.0326 303.747 55.0326Z" fill="#C79D51"/>
<path d="M340.086 71.646H352.924C352.924 71.646 361.89 111.103 362.928 115.256C363.966 119.41 366.043 139.138 365.004 139.138C363.966 139.138 343.201 134.985 343.201 138.1L340.086 71.646Z" fill="#C79D51"/>
<path d="M339.651 169.354H290.504C285.708 147.289 285.307 125.971 290.504 105.603H339.651C331.72 125.605 331.225 146.777 339.651 169.354Z" fill="#F2F2F2"/>
<path d="M270.523 142.253L285.059 148.483C285.059 148.483 313.092 152.636 313.092 141.214C313.092 129.793 285.059 136.023 285.059 136.023L275.714 133.035L270.523 142.253Z" fill="#A0616A"/>
<path d="M273.638 65.4155L261.179 68.5306L251.835 123.563C251.835 123.563 248.72 138.099 253.911 139.138C259.103 140.176 273.638 148.483 273.638 148.483C273.638 148.483 275.715 132.908 279.868 132.908L269.485 124.601L275.715 88.2591L273.638 65.4155Z" fill="#C79D51"/>
<path d="M97.4419 171.743H29.3169V172.716H97.4419V171.743Z" fill="#F2F2F2"/>
<path d="M48.7814 162.982H47.8081V171.985H48.7814V162.982Z" fill="#F2F2F2"/>
<path d="M78.465 162.982H77.4917V171.985H78.465V162.982Z" fill="#F2F2F2"/>
<path d="M121.286 27.6943H53.1606V28.6676H121.286V27.6943Z" fill="#F2F2F2"/>
<path d="M102.795 28.4238H101.822V37.4268H102.795V28.4238Z" fill="#F2F2F2"/>
<path d="M73.1115 28.4238H72.1382V37.4268H73.1115V28.4238Z" fill="#F2F2F2"/>
<path d="M189.898 123.564H121.773V124.537H189.898V123.564Z" fill="#F2F2F2"/>
<path d="M171.406 124.294H170.433V133.297H171.406V124.294Z" fill="#F2F2F2"/>
<path d="M141.724 124.294H140.75V133.297H141.724V124.294Z" fill="#F2F2F2"/>
<path d="M74.0854 123.078H5.96045V124.051H74.0854V123.078Z" fill="#F2F2F2"/>
<path d="M55.5939 123.807H54.6206V132.81H55.5939V123.807Z" fill="#F2F2F2"/>
<path d="M25.9113 123.807H24.938V132.81H25.9113V123.807Z" fill="#F2F2F2"/>
<path d="M155.835 74.4126H87.7104V75.3859H155.835V74.4126Z" fill="#F2F2F2"/>
<path d="M107.174 65.6528H106.201V74.6558H107.174V65.6528Z" fill="#F2F2F2"/>
<path d="M136.858 65.6528H135.884V74.6558H136.858V65.6528Z" fill="#F2F2F2"/>
</g>
<defs>
<clipPath id="clip0_3251_18118">
<rect width="436" height="364" fill="white"/>
</clipPath>
</defs>
</svg>
