<svg width="539" height="339" viewBox="0 0 539 339" fill="none" xmlns="http://www.w3.org/2000/svg">
<path d="M277.642 72.3833C277.642 72.3833 311.263 75.8977 320.167 90.5413C329.07 105.185 392.682 185.432 392.682 185.432L225.394 184.26C225.394 184.26 216.725 93.1185 228.557 73.6719C228.557 73.6719 230.9 67.2287 277.642 72.3833Z" fill="#1D326D"/>
<path d="M255.852 93.5871C260.187 98.9759 266.63 102.842 273.541 102.842C274.479 102.842 275.299 102.725 276.236 102.49C277.407 102.022 278.462 101.085 279.047 100.03C282.21 95.6958 282.328 89.9555 281.508 84.6838C280.922 81.0522 279.867 77.0692 277.056 74.6091C273.776 71.6803 268.973 71.4461 264.638 71.3289C260.304 71.2118 250.112 69.9231 248.472 75.312C246.949 80.3493 253.04 89.9555 255.852 93.5871Z" fill="#C79D51"/>
<path d="M273.893 103.779H273.659C266.864 103.662 260.069 100.03 255.266 94.1729C252.103 90.1898 246.129 80.4665 247.769 75.1948C249.409 69.9231 257.961 70.1574 262.998 70.5089C263.701 70.5089 264.287 70.626 264.873 70.626C269.793 70.7432 274.479 71.0946 277.876 74.1405C281.273 77.1863 282.093 81.5208 282.562 84.6838C283.616 91.4784 282.679 96.8673 279.985 100.733C279.165 101.905 278.11 102.842 276.705 103.428C275.65 103.662 274.713 103.779 273.893 103.779ZM256.555 93.0014C261.007 98.5074 267.333 101.905 273.542 102.022C274.362 102.022 275.182 102.022 275.885 101.788C276.939 101.319 277.759 100.616 278.345 99.6788C280.805 96.2815 281.625 91.3613 280.688 84.9181C280.219 81.9894 279.399 77.8892 276.587 75.4291C273.776 72.969 269.324 72.5004 264.638 72.3832C264.053 72.3832 263.467 72.3832 262.764 72.2661C258.195 72.0318 250.58 71.6803 249.292 75.7805C248.003 79.9979 253.392 89.1355 256.555 93.0014Z" fill="#231F20"/>
<path d="M283.851 38.293C284.32 36.7701 285.022 35.3643 286.077 34.1928C287.131 33.0214 288.888 32.5528 290.294 33.1385C291.349 33.7243 291.934 34.7786 292.051 36.0672C292.169 37.2387 291.934 38.4102 291.466 39.4645C290.763 41.5732 289.591 43.4476 288.068 44.9705C286.545 46.4935 284.437 47.3135 282.211 47.3135" fill="white"/>
<path d="M282.679 48.2507H282.211C281.742 48.2507 281.391 47.7821 281.391 47.3135C281.391 46.8449 281.859 46.4934 282.328 46.4934C284.319 46.6106 286.194 45.7905 287.599 44.3848C289.005 42.979 290.06 41.2217 290.762 39.2302C291.114 38.293 291.348 37.2387 291.348 36.1844C291.348 35.2472 290.763 34.4271 290.06 33.9585C288.888 33.6071 287.599 33.8414 286.897 34.7786C285.959 35.8329 285.257 37.1216 284.905 38.5273C284.788 38.9959 284.202 39.2302 283.734 39.1131C283.265 38.9959 283.031 38.4102 283.148 38.0587C283.148 38.0587 283.148 38.0588 283.148 37.9416C283.616 36.3015 284.436 34.7786 285.491 33.6071C286.779 32.2013 288.888 31.7327 290.762 32.4356C292.051 33.1385 292.871 34.4271 292.988 35.9501C293.105 37.2387 292.871 38.5273 292.403 39.816C291.7 42.0418 290.411 44.0333 288.771 45.6734C287.131 47.1963 284.905 48.1335 282.679 48.2507Z" fill="#231F20"/>
<path d="M275.65 59.0283L277.525 77.4206C277.525 77.4206 276.587 87.964 265.107 85.8553C258.195 84.5667 252.338 80.2322 248.94 74.0233L249.409 40.9874C249.292 39.5817 252.103 35.0129 250.815 23.298C258.781 22.478 266.044 18.3778 270.847 11.9346C270.847 11.9346 276.236 18.495 278.462 20.6036C280.219 22.1266 281.859 23.8838 283.148 25.7582C286.662 31.147 286.545 39.9331 285.725 46.0248C285.022 51.0622 281.976 59.1455 275.65 59.0283Z" fill="white"/>
<path d="M267.919 87.0268C266.864 87.0268 265.927 86.9097 264.873 86.7925C257.727 85.5039 251.518 80.9351 248.121 74.4919C248.003 74.3748 248.003 74.2576 248.003 74.1405C248.003 74.1405 248.472 41.3389 248.472 41.1046C248.472 40.5189 248.589 39.816 248.823 39.2302C249.526 37.0044 250.815 32.2013 249.878 23.5323C249.878 23.2981 249.878 23.0637 250.112 22.8294C250.229 22.5952 250.464 22.478 250.698 22.478C258.43 21.658 265.459 17.6749 270.144 11.4661C270.262 11.2318 270.613 11.1146 270.847 11.1146C271.082 11.1146 271.433 11.2318 271.55 11.4661C271.55 11.4661 276.939 18.0264 279.048 20.0179C280.922 21.5408 282.562 23.4152 283.968 25.4067C288.185 31.7327 287.248 42.1589 286.662 46.2591C285.959 51.1794 283.031 59.3798 276.705 60.0827L278.462 77.5378V77.6549C278.111 80.5836 276.705 83.278 274.479 85.1524C272.487 86.4411 270.262 87.1439 267.919 87.0268ZM249.761 73.789C253.041 79.6465 258.664 83.7466 265.224 84.9181C268.622 85.5039 271.316 85.0353 273.307 83.5123C275.182 81.9894 276.353 79.7636 276.705 77.3035L274.83 58.9112C274.83 58.6769 274.948 58.4426 275.065 58.2083C275.299 58.0911 275.533 57.974 275.768 57.974H275.885C281.625 57.974 284.319 50.2422 284.905 45.6734C285.491 41.6903 286.311 31.8499 282.445 25.9925C281.156 24.1181 279.633 22.478 277.876 20.9551C276.119 19.315 272.487 14.9805 270.965 13.1061C266.161 18.9636 259.367 22.8295 251.869 23.7666C252.689 32.3185 251.401 37.0044 250.698 39.3474C250.581 39.816 250.464 40.1674 250.346 40.636C250.229 40.8703 250.229 40.8703 249.761 73.789Z" fill="#231F20"/>
<path d="M276.236 65.0029C273.19 65.5886 270.144 65.2372 267.215 64.0657C260.655 61.7227 260.304 57.2711 260.304 57.2711C260.304 57.2711 265.81 60.7855 275.65 58.9112L276.236 65.0029Z" fill="#231F20"/>
<path d="M273.542 66.1744C271.316 66.1744 269.09 65.7058 266.981 65.0029C259.952 62.5428 259.484 57.6225 259.484 57.5054C259.484 57.0368 259.835 56.5682 260.304 56.5682C260.538 56.5682 260.655 56.5682 260.89 56.6854C261.007 56.6854 266.278 59.9655 275.533 58.2083C276.002 58.0911 276.47 58.4426 276.588 58.9112C276.588 58.9112 276.588 58.9112 276.588 59.0283L277.173 65.0029C277.29 65.4715 277.056 65.9401 276.588 66.0572C276.47 66.0572 276.47 66.0572 276.353 66.0572C275.299 66.1744 274.479 66.1744 273.542 66.1744ZM261.827 59.0283C263.115 61.137 265.224 62.6599 267.567 63.3628C270.027 64.3 272.722 64.6514 275.299 64.4171L274.83 60.1998C270.496 60.9027 265.927 60.5513 261.827 59.0283Z" fill="#231F20"/>
<path d="M266.044 33.1385C266.044 33.1385 272.839 41.4561 271.667 43.0961C270.496 44.7362 266.395 44.1505 266.395 44.1505" fill="white"/>
<path d="M268.036 45.2048C267.45 45.2048 266.864 45.2048 266.278 45.0877C265.81 44.9705 265.458 44.6191 265.575 44.0333C265.693 43.5647 266.044 43.2133 266.63 43.3304C267.801 43.4476 270.379 43.5647 271.081 42.6275C271.316 41.8075 268.738 37.5902 265.575 33.7243C265.224 33.3728 265.341 32.7871 265.693 32.4356C266.044 32.0842 266.63 32.2013 266.981 32.5528C270.261 36.5358 274.01 41.6903 272.604 43.5647C271.433 44.9705 269.441 45.2048 268.036 45.2048Z" fill="#231F20"/>
<path d="M276.728 35.4635C277.305 35.3863 277.661 34.4919 277.524 33.4658C277.387 32.4397 276.808 31.6705 276.231 31.7477C275.653 31.8249 275.297 32.7193 275.434 33.7454C275.571 34.7715 276.151 35.5407 276.728 35.4635Z" fill="#231F20"/>
<path d="M260.317 35.007C260.899 35.0002 261.361 34.1556 261.349 33.1205C261.337 32.0854 260.855 31.2518 260.273 31.2586C259.691 31.2654 259.229 32.1101 259.241 33.1452C259.253 34.1802 259.735 35.0138 260.317 35.007Z" fill="#231F20"/>
<path d="M253.041 35.9501C252.572 34.4271 251.869 32.9042 250.932 31.4984C249.878 29.9755 248.003 29.0383 246.129 29.0383C244.958 29.0383 243.903 29.6241 243.2 30.5613C242.849 31.2641 242.498 31.967 242.498 32.7871C241.912 36.8873 243.2 42.2761 247.066 44.3848C248.355 45.2048 250.112 45.2048 251.401 44.5019" fill="white"/>
<path d="M249.643 46.0248C248.589 46.0248 247.652 45.7905 246.832 45.3219C242.615 42.979 241.092 37.3559 241.795 32.9042C241.912 31.967 242.146 31.147 242.732 30.327C243.552 29.1555 244.84 28.4526 246.363 28.3354C248.589 28.3354 250.581 29.2726 251.869 31.147C252.924 32.5528 253.627 34.1929 254.095 35.8329C254.212 36.3015 253.978 36.7701 253.509 36.8873C253.041 37.0044 252.572 36.7701 252.455 36.3015C252.104 34.7786 251.401 33.49 250.581 32.2013C249.644 30.9127 248.121 30.0926 246.598 30.0926C245.66 30.0926 244.84 30.5612 244.372 31.2641C244.02 31.8499 243.786 32.4356 243.786 33.1385C243.2 37.0044 244.489 41.9247 248.003 43.799C249.058 44.5019 250.346 44.5019 251.401 43.9162C251.752 43.5647 252.338 43.6819 252.689 44.0333C253.041 44.3848 252.924 44.9705 252.572 45.3219C251.401 45.7905 250.464 46.0248 249.643 46.0248Z" fill="#231F20"/>
<path d="M316.184 176.997C312.084 151.341 304.235 102.608 303.883 101.085L316.184 176.997Z" fill="#231F20"/>
<path d="M316.184 177.817C315.715 177.817 315.364 177.465 315.364 177.114C310.561 147.358 303.415 102.725 303.063 101.319C302.946 100.85 303.298 100.382 303.766 100.265C304.235 100.147 304.586 100.499 304.703 100.85C305.172 102.725 316.887 176.06 317.004 176.763C317.121 177.231 316.77 177.7 316.301 177.817H316.184Z" fill="#231F20"/>
<path d="M266.981 127.56L246.715 127.794L246.129 120.414L265.458 120.18L266.981 127.56Z" fill="white"/>
<path d="M246.715 128.614C246.246 128.614 245.895 128.263 245.778 127.794L245.192 120.414C245.192 119.946 245.543 119.477 246.012 119.477C246.012 119.477 246.012 119.477 246.129 119.477L265.576 119.243C266.044 119.243 266.396 119.594 266.396 119.946L267.802 127.326C267.802 127.56 267.802 127.794 267.567 128.029C267.45 128.263 267.216 128.38 266.864 128.38L246.715 128.614ZM247.066 121.234L247.535 126.857L265.927 126.74L264.873 121.117L247.066 121.234Z" fill="#231F20"/>
<path d="M277.525 46.6106C277.525 46.6106 265.458 61.8399 256.555 44.9705L277.525 46.6106Z" fill="white"/>
<path d="M268.326 48.3688C268.469 48.3688 268.683 48.3688 268.826 48.3688C271.183 48.5832 273.184 50.2977 274.898 53.4411C275.041 53.7268 274.97 54.0126 274.684 54.1555C274.398 54.2984 274.112 54.2269 273.97 53.9412C272.469 51.155 270.755 49.5833 268.754 49.369C265.254 49.0118 262.111 52.941 262.039 53.0124C261.825 53.2268 261.539 53.2267 261.325 53.0839C261.11 52.8695 261.039 52.5838 261.253 52.298C261.396 52.298 264.468 48.3688 268.326 48.3688Z" fill="#231F20"/>
<path d="M374.406 103.428C374.172 103.428 373.938 103.31 373.821 103.193C373.469 102.842 373.469 102.256 373.821 101.905C382.49 93.5871 384.481 76.132 373.704 63.2457C362.692 50.125 345.002 47.5478 335.513 47.1963C333.404 47.0792 331.179 47.0792 329.187 47.0792C319.932 47.0792 310.443 46.962 303.18 41.4561C298.963 38.2931 296.034 31.8499 292.988 24.9381C288.888 15.8005 284.671 6.42867 277.173 5.25718C275.885 5.14003 274.479 5.37433 273.307 5.84292C272.019 6.42867 270.496 6.66296 269.09 6.42867C268.036 6.19437 267.098 5.72578 266.278 5.02289L265.693 4.67144C259.367 0.688393 250.815 0.805549 242.732 4.7886C233.828 9.24024 227.619 19.5493 226.565 31.7327C225.511 42.7447 228.205 53.6395 230.9 64.1829L229.26 64.6514C226.565 53.9909 223.871 42.979 224.925 31.6156C226.097 18.8464 232.657 7.9516 242.029 3.26566C250.698 -1.06883 259.952 -1.06883 266.747 3.14852L267.333 3.49996C268.856 4.90574 271.082 5.14003 272.839 4.0857C274.362 3.49996 275.885 3.26566 277.525 3.38281C285.842 4.67144 290.294 14.5119 294.628 24.0009C297.674 30.6784 300.486 37.0044 304.352 39.816C311.146 44.9705 320.401 44.9705 329.421 44.9705C331.413 44.9705 333.639 44.9705 335.747 45.0877C345.588 45.4391 363.746 48.1335 375.226 61.7227C386.707 75.312 384.481 93.9386 375.226 102.725C374.875 103.31 374.641 103.428 374.406 103.428Z" fill="#231F20"/>
<path d="M538.063 31.7327H396.196V170.554H538.063V31.7327Z" fill="white"/>
<path d="M538.063 171.491H396.196C395.727 171.491 395.376 171.139 395.259 170.554V31.7327C395.259 31.2641 395.61 30.9126 396.196 30.7955H538.063C538.531 30.7955 539 31.1469 539 31.7327V170.554C538.883 171.022 538.531 171.491 538.063 171.491ZM397.016 169.734H537.126V32.6699H397.016V169.734Z" fill="#D1D3D4"/>
<path d="M538.063 144.898H396.196V170.554H538.063V144.898Z" fill="white"/>
<path d="M538.063 171.491H396.196C395.727 171.491 395.376 171.139 395.259 170.554V144.898C395.259 144.429 395.61 144.078 396.196 143.961H538.063C538.531 143.961 539 144.312 539 144.898V170.554C538.883 171.022 538.531 171.491 538.063 171.491ZM397.016 169.734H537.126V145.835H397.016V169.734Z" fill="#D1D3D4"/>
<path d="M491.204 88.4325L459.456 104.95C457.934 105.771 456.059 105.185 455.239 103.662C455.005 103.193 454.888 102.725 454.888 102.256V69.103C454.888 67.3458 456.293 65.94 457.934 65.94C458.402 65.94 458.988 66.0572 459.339 66.2915L491.087 82.8094C492.609 83.6294 493.195 85.5038 492.375 87.0268C492.141 87.7296 491.672 88.1982 491.204 88.4325Z" fill="white"/>
<path d="M457.933 106.239C457.23 106.239 456.527 106.005 455.825 105.653C454.653 104.95 453.95 103.662 453.95 102.256V69.103C453.95 66.8772 455.707 65.12 457.933 65.12C458.636 65.12 459.222 65.2371 459.808 65.5886L491.555 82.1065C493.546 83.1609 494.249 85.5038 493.195 87.4953C492.843 88.1982 492.258 88.784 491.555 89.1354L459.808 105.771C459.222 106.122 458.519 106.239 457.933 106.239ZM457.933 66.9944C457.465 66.9944 457.113 67.1115 456.762 67.3458C456.059 67.6973 455.707 68.5173 455.707 69.2202V102.256C455.707 103.428 456.762 104.482 457.933 104.482C458.285 104.482 458.636 104.365 458.988 104.248L490.735 87.7296C491.789 87.1439 492.258 85.8553 491.672 84.8009C491.438 84.3323 491.086 84.098 490.735 83.8637L458.988 67.3458C458.636 66.9944 458.285 66.9944 457.933 66.9944Z" fill="#D1D3D4"/>
<path d="M130.972 164.813H0.937012V65.12L18.7436 46.962H130.972V164.813Z" fill="white"/>
<path d="M130.972 165.633H0.937187C0.468593 165.633 0 165.282 0 164.696V65.0028C0 64.7685 0.117148 64.5342 0.234297 64.4171L17.9237 46.2591C18.0409 46.1419 18.2752 46.0248 18.5095 46.0248H130.855C131.323 46.0248 131.675 46.3762 131.792 46.962V164.696C131.909 165.282 131.558 165.633 130.972 165.633ZM1.87438 163.876H130.152V47.8992H19.0952L1.87438 65.4714V163.876Z" fill="#D1D3D4"/>
<path d="M119.843 127.677H11.8322C11.3636 127.677 10.895 127.326 10.895 126.74C10.895 126.154 11.2465 125.803 11.8322 125.803H119.843C120.312 125.803 120.78 126.154 120.78 126.74C120.78 127.326 120.312 127.677 119.843 127.677Z" fill="#D1D3D4"/>
<path d="M11.8322 144.664C11.3636 144.664 10.895 144.312 10.895 143.727C10.895 143.141 11.2465 142.789 11.8322 142.789H119.843C120.312 142.789 120.78 143.141 120.78 143.727C120.78 144.312 120.429 144.664 119.843 144.664H11.8322Z" fill="#D1D3D4"/>
<path d="M19.6808 46.7277L19.4465 64.8857C19.4465 65.2371 19.0951 65.5886 18.7437 65.5886H1.17139" fill="white"/>
<path d="M18.6267 66.5258H1.17156C0.702969 66.5258 0.234375 66.1743 0.234375 65.5886C0.234375 65.0028 0.585821 64.6514 1.17156 64.6514H18.5095L18.7438 46.6105C18.7438 46.1419 19.0953 45.7905 19.5639 45.7905H19.681C20.1496 45.7905 20.5011 46.1419 20.5011 46.7277L20.2668 64.8857C20.2668 65.8229 19.5639 66.5258 18.6267 66.5258Z" fill="#D1D3D4"/>
<path d="M119.843 76.4834H11.8322C11.3636 76.4834 10.895 76.1319 10.895 75.5462C10.895 74.9605 11.2465 74.609 11.8322 74.609H119.843C120.312 74.609 120.78 74.9605 120.78 75.5462C120.78 76.1319 120.312 76.4834 119.843 76.4834Z" fill="#D1D3D4"/>
<path d="M120.546 93.5871H11.8322C11.3636 93.5871 10.895 93.2356 10.895 92.6499C10.895 92.0641 11.2465 91.7127 11.8322 91.7127H120.546C121.015 91.7127 121.483 92.0641 121.483 92.6499C121.483 93.2356 121.015 93.5871 120.546 93.5871Z" fill="#D1D3D4"/>
<path d="M119.843 110.574H11.8322C11.3636 110.574 10.895 110.222 10.895 109.636C10.895 109.051 11.2465 108.699 11.8322 108.699H119.843C120.312 108.699 120.78 109.051 120.78 109.636C120.78 110.222 120.312 110.574 119.843 110.574Z" fill="#D1D3D4"/>
<path d="M184.626 4.08565H116.68V58.4425H184.626V4.08565Z" fill="white"/>
<path d="M184.509 59.2626H116.563C116.094 59.2626 115.743 58.9111 115.625 58.3254V3.9685C115.625 3.49991 115.977 3.14847 116.563 3.03132H184.509C184.977 3.03132 185.446 3.38276 185.446 3.9685V58.3254C185.446 58.9111 184.977 59.2626 184.509 59.2626ZM117.5 57.5053H183.689V4.90569H117.5V57.5053Z" fill="#D1D3D4"/>
<path d="M116.797 45.2048C116.563 45.2048 116.328 45.0876 116.211 44.9705C115.86 44.619 115.86 44.0333 116.211 43.6818L137.532 22.3608C139.055 20.8379 141.164 20.0178 143.273 20.135C145.381 20.2521 147.373 21.1893 148.779 22.8294L166.468 43.6818C166.819 44.0333 166.702 44.619 166.351 44.9705C165.999 45.3219 165.414 45.2048 165.062 44.8533L147.373 24.118C145.264 21.6579 141.633 21.3065 139.172 23.4151C139.055 23.5323 138.938 23.6494 138.821 23.7666L117.5 45.0876C117.266 45.2048 117.031 45.2048 116.797 45.2048Z" fill="#D1D3D4"/>
<path d="M184.509 40.4017C184.275 40.4017 184.04 40.2845 183.806 40.1674L174.903 30.5612C172.677 28.2182 169.045 27.9839 166.585 30.2097C166.468 30.3269 166.351 30.444 166.234 30.5612L160.259 37.2387C159.908 37.5901 159.322 37.5901 158.971 37.2387C158.619 36.8872 158.619 36.3015 158.971 35.95L165.062 29.3897C167.874 26.3438 172.794 26.1095 175.84 28.9211C175.957 29.0383 176.191 29.1554 176.309 29.3897L185.212 38.9959C185.563 39.3473 185.446 39.9331 185.095 40.2845C185.095 40.2845 184.86 40.4017 184.509 40.4017Z" fill="#D1D3D4"/>
<path d="M160.845 19.1978C162.915 19.1978 164.594 17.5194 164.594 15.449C164.594 13.3787 162.915 11.7003 160.845 11.7003C158.775 11.7003 157.096 13.3787 157.096 15.449C157.096 17.5194 158.775 19.1978 160.845 19.1978Z" fill="white"/>
<path d="M160.845 20.135C158.267 20.135 156.159 18.0263 156.159 15.4491C156.159 12.8718 158.267 10.7631 160.845 10.7631C163.422 10.7631 165.531 12.8718 165.531 15.4491C165.531 18.0263 163.422 20.135 160.845 20.135ZM160.845 12.6375C159.205 12.6375 157.916 13.9261 157.916 15.5662C157.916 17.2063 159.205 18.4949 160.845 18.4949C162.485 18.4949 163.773 17.2063 163.773 15.5662C163.773 13.9261 162.485 12.6375 160.845 12.6375Z" fill="#D1D3D4"/>
<path d="M493.312 144.898V307.969C493.312 324.487 479.957 337.959 463.322 337.959H68.7659C52.248 337.959 38.8931 324.604 38.8931 308.086V144.898C38.8931 128.38 52.248 114.908 68.7659 114.908H463.439C479.957 115.025 493.312 128.38 493.312 144.898Z" fill="white"/>
<path d="M463.439 338.779H68.7661C51.7796 338.779 37.9561 324.955 37.9561 307.969V144.898C37.9561 127.912 51.7796 114.088 68.7661 114.088H463.439C480.426 114.088 494.249 127.912 494.249 144.898V307.969C494.249 324.955 480.426 338.779 463.439 338.779ZM68.7661 115.845C52.7168 115.845 39.7133 128.849 39.7133 144.898V307.969C39.7133 324.018 52.7168 337.022 68.7661 337.022H463.439C479.489 337.022 492.492 324.018 492.492 307.969V144.898C492.492 128.849 479.489 115.845 463.439 115.845H68.7661Z" fill="#231F20"/>
<path d="M493.312 144.898V155.91H38.7759V144.898C38.7759 128.38 52.1308 114.908 68.7659 114.908H463.439C479.957 115.025 493.312 128.38 493.312 144.898Z" fill="white"/>
<path d="M493.312 156.847H38.7761C38.3075 156.847 37.956 156.496 37.8389 155.91V144.898C37.8389 127.912 51.6624 114.088 68.6489 114.088H463.322C480.309 114.088 494.132 127.912 494.132 144.898V155.91C494.249 156.379 493.898 156.847 493.312 156.847ZM39.7132 155.09H492.492V144.898C492.492 128.849 479.488 115.845 463.439 115.845H68.7661C52.7167 115.845 39.7132 128.849 39.7132 144.898V155.09Z" fill="#231F20"/>
<path d="M115.625 217.882C106.956 217.999 100.044 225.145 100.162 233.814V268.373C100.044 277.042 106.956 284.188 115.625 284.305H399.71C408.379 284.188 415.291 277.042 415.174 268.373V233.814C415.291 225.145 408.379 217.999 399.71 217.882H115.625Z" fill="white"/>
<path d="M399.71 285.359H115.625C106.488 285.242 99.1074 277.744 99.2245 268.49V233.931C99.1074 224.793 106.488 217.179 115.625 217.061H399.71C408.848 217.179 416.228 224.676 416.111 233.931V268.49C416.228 277.627 408.848 285.242 399.71 285.359ZM115.625 218.819C107.425 218.936 100.865 225.73 100.982 233.931V268.49C100.865 276.69 107.425 283.485 115.625 283.602H399.71C407.911 283.485 414.471 276.69 414.354 268.49V233.931C414.471 225.73 407.911 218.936 399.71 218.819H115.625Z" fill="#C79D51"/>
<path d="M415.994 234.399V268.021C415.994 277.042 408.731 284.305 399.71 284.305H339.613V218.116H399.71C408.731 218.116 415.994 225.379 415.994 234.399Z" fill="#1D326D"/>
<path d="M371.478 260.289C362.809 260.289 355.663 253.26 355.663 244.474C355.663 235.805 362.692 228.659 371.478 228.659C375.695 228.659 379.678 230.299 382.607 233.345C388.816 239.554 388.698 249.512 382.607 255.72C379.678 258.532 375.578 260.172 371.478 260.289ZM371.478 233.345C365.386 233.345 360.349 238.265 360.349 244.474C360.349 250.566 365.269 255.603 371.478 255.603C377.687 255.603 382.607 250.683 382.607 244.474C382.607 241.546 381.435 238.734 379.327 236.625C377.218 234.517 374.406 233.345 371.478 233.345Z" fill="#C79D51"/>
<path d="M395.727 271.77C395.142 271.77 394.439 271.536 393.97 271.067L379.21 255.603C378.272 254.666 378.39 253.143 379.327 252.323C380.264 251.503 381.787 251.503 382.607 252.44L397.368 267.904C398.305 268.841 398.188 270.364 397.25 271.184C396.899 271.536 396.313 271.77 395.727 271.77Z" fill="#C79D51"/>
<path d="M74.389 142.204C77.1064 142.204 79.3092 140.001 79.3092 137.283C79.3092 134.566 77.1064 132.363 74.389 132.363C71.6716 132.363 69.4688 134.566 69.4688 137.283C69.4688 140.001 71.6716 142.204 74.389 142.204Z" fill="#1D326D"/>
<path d="M91.8445 142.204C94.5619 142.204 96.7648 140.001 96.7648 137.283C96.7648 134.566 94.5619 132.363 91.8445 132.363C89.1272 132.363 86.9243 134.566 86.9243 137.283C86.9243 140.001 89.1272 142.204 91.8445 142.204Z" fill="#D1D3D4"/>
<path d="M109.182 142.204C111.9 142.204 114.103 140.001 114.103 137.283C114.103 134.566 111.9 132.363 109.182 132.363C106.465 132.363 104.262 134.566 104.262 137.283C104.262 140.001 106.465 142.204 109.182 142.204Z" fill="#D1D3D4"/>
<path d="M303.766 259.588C303.648 258.651 304.468 257.714 305.406 257.714H305.523C306.577 257.714 307.514 258.534 307.514 259.588C307.514 260.643 306.694 261.58 305.64 261.58C304.703 261.58 303.883 260.76 303.766 259.588C303.766 259.705 303.766 259.705 303.766 259.588Z" fill="#231F20"/>
<path d="M310.092 259.588C309.975 258.651 310.795 257.714 311.732 257.714H311.849C312.904 257.714 313.841 258.534 313.841 259.588C313.841 260.643 313.021 261.58 311.967 261.58C311.147 261.58 310.209 260.76 310.092 259.588C310.092 259.705 310.092 259.705 310.092 259.588Z" fill="#231F20"/>
<path d="M316.417 259.588C316.3 258.534 317.12 257.714 318.058 257.714H318.175C319.229 257.714 320.166 258.534 320.166 259.588C320.166 260.643 319.346 261.58 318.292 261.58C317.472 261.58 316.535 260.76 316.417 259.588C316.535 259.705 316.535 259.705 316.417 259.588Z" fill="#231F20"/>
<path d="M119.585 261.805H117.394V243.764C118.399 243.764 121.724 243.713 122.239 243.713C127.162 243.713 128.657 246.161 128.657 249.074C128.657 251.883 126.724 253.661 124.739 254.177L130.744 261.805H128.064L122.523 254.589H119.585V261.805ZM122.111 245.775C121.544 245.775 120.435 245.8 119.585 245.826V252.527H122.239C124.327 252.527 126.337 251.238 126.337 249.099C126.337 247.244 125.306 245.775 122.111 245.775ZM141.146 258.919L141.791 260.542C140.657 261.573 138.982 262.063 137.435 262.063C133.672 262.063 131.224 259.666 131.224 256.006C131.224 252.63 133.389 249.95 137.203 249.95C140.193 249.95 142.59 252.063 142.59 255.259C142.59 255.826 142.538 256.29 142.461 256.651H133.544C133.724 258.841 135.322 260.13 137.59 260.13C139.085 260.13 140.399 259.615 141.146 258.919ZM137.1 251.883C134.987 251.883 133.647 253.197 133.415 254.975H140.451C140.347 253.068 139.11 251.883 137.1 251.883ZM151.263 258.661C151.263 256.316 145 257.475 145 253.223C145 251.187 146.65 249.95 148.943 249.95C150.851 249.95 152.242 250.646 152.938 251.316L151.959 252.888C151.263 252.269 150.258 251.754 149.047 251.754C147.887 251.754 147.191 252.424 147.191 253.197C147.191 255.646 153.454 254.486 153.454 258.558C153.454 261.006 151.289 262.063 148.969 262.063C147.088 262.063 145.232 261.084 144.691 260.259L145.851 258.79C146.521 259.563 148.041 260.259 149.201 260.259C150.284 260.259 151.263 259.718 151.263 258.661ZM166.641 250.208V261.805H164.579V260.156C163.78 261.135 162.311 262.063 160.482 262.063C157.904 262.063 156.203 260.517 156.203 257.115V250.208H158.265V256.651C158.265 258.841 159.141 260.13 161.255 260.13C162.595 260.13 163.858 259.331 164.579 258.403V250.208H166.641ZM170.379 258.713V243.764H172.441V257.785C172.441 259.357 172.828 260.078 173.807 260.078C174.374 260.078 174.889 259.821 175.276 259.563L175.74 261.135C175.121 261.625 174.219 262.011 173.008 262.011C171.256 262.011 170.379 260.955 170.379 258.713ZM177.597 257.398V246.986H179.658V250.208H183.911V252.141H179.658V257.192C179.658 259.022 180.251 260.078 181.72 260.078C182.519 260.078 183.138 259.743 183.55 259.434L184.194 261.032C183.576 261.548 182.519 262.011 181.231 262.011C178.628 262.011 177.597 260.362 177.597 257.398ZM192.729 261.805V250.208H194.791V251.625C195.59 250.749 197.059 250.001 198.579 250.001C201.595 250.001 203.399 251.47 203.399 255.104V261.805H201.337V255.491C201.337 253.068 200.229 251.934 198.064 251.934C196.75 251.934 195.538 252.579 194.791 253.429V261.805H192.729ZM206.101 256.006C206.101 252.527 208.575 249.95 212.286 249.95C215.997 249.95 218.471 252.527 218.471 256.006C218.471 259.486 215.997 262.063 212.286 262.063C208.575 262.063 206.101 259.486 206.101 256.006ZM208.291 256.006C208.291 258.429 209.966 260.13 212.286 260.13C214.606 260.13 216.281 258.481 216.281 256.006C216.281 253.584 214.606 251.883 212.286 251.883C210.018 251.883 208.291 253.558 208.291 256.006ZM221.189 257.398V246.986H223.25V250.208H227.503V252.141H223.25V257.192C223.25 259.022 223.843 260.078 225.312 260.078C226.111 260.078 226.73 259.743 227.142 259.434L227.786 261.032C227.168 261.548 226.111 262.011 224.823 262.011C222.22 262.011 221.189 260.362 221.189 257.398ZM236.579 261.805V248.326C236.579 245.105 238.074 243.507 240.651 243.507C242.043 243.507 243.151 243.971 243.744 244.538L243.022 246.11C242.532 245.697 241.862 245.44 240.986 245.44C239.517 245.44 238.641 246.393 238.641 248.558V250.208H242.506V252.141H238.641V261.805H236.579ZM243.828 256.006C243.828 252.527 246.303 249.95 250.014 249.95C253.725 249.95 256.199 252.527 256.199 256.006C256.199 259.486 253.725 262.063 250.014 262.063C246.303 262.063 243.828 259.486 243.828 256.006ZM246.019 256.006C246.019 258.429 247.694 260.13 250.014 260.13C252.333 260.13 254.009 258.481 254.009 256.006C254.009 253.584 252.333 251.883 250.014 251.883C247.746 251.883 246.019 253.558 246.019 256.006ZM269.354 250.208V261.805H267.293V260.156C266.494 261.135 265.025 262.063 263.195 262.063C260.617 262.063 258.916 260.517 258.916 257.115V250.208H260.978V256.651C260.978 258.841 261.855 260.13 263.968 260.13C265.308 260.13 266.571 259.331 267.293 258.403V250.208H269.354ZM273.092 261.805V250.208H275.154V251.625C275.953 250.749 277.422 250.001 278.943 250.001C281.958 250.001 283.762 251.47 283.762 255.104V261.805H281.7V255.491C281.7 253.068 280.592 251.934 278.427 251.934C277.113 251.934 275.902 252.579 275.154 253.429V261.805H273.092ZM295.742 261.805V260.336C294.892 261.264 293.629 262.011 292.057 262.011C288.655 262.011 286.464 259.666 286.464 256.084C286.464 252.476 289.144 249.95 292.804 249.95C294.041 249.95 294.943 250.208 295.742 250.775V243.764H297.804V261.805H295.742ZM292.443 260.078C293.783 260.078 295.02 259.331 295.742 258.532V252.785C294.763 252.166 293.835 251.883 292.881 251.883C290.588 251.883 288.655 253.481 288.655 256.032C288.655 258.584 290.278 260.078 292.443 260.078Z" fill="black"/>
<path d="M265.576 170.436C265.576 170.436 277.759 174.888 281.391 174.419C285.022 173.951 296.269 168.913 297.674 170.085C299.08 171.256 298.612 174.537 286.78 179.925C286.78 179.925 317.941 196.443 316.184 198.318C314.427 200.192 300.837 193.983 288.771 189.063C288.771 189.063 282.445 199.606 273.308 197.732C264.17 195.858 258.43 187.657 258.43 187.657" fill="white"/>
<path d="M315.013 199.489C311.967 199.489 305.758 197.029 294.277 192.343L289.006 190.117C287.365 192.46 281.508 200.309 272.956 198.552C263.467 196.561 257.727 188.36 257.493 188.009C257.258 187.54 257.375 187.072 257.844 186.837C258.196 186.603 258.664 186.72 259.016 187.071C259.016 187.189 264.639 195.038 273.425 196.912C281.977 198.669 287.951 188.712 287.951 188.712C288.186 188.36 288.654 188.126 289.006 188.36L294.863 190.82C302.243 193.866 312.084 197.966 314.895 197.966H315.013C312.552 195.506 299.08 187.657 286.428 180.863C286.077 180.745 285.96 180.394 285.96 180.043C285.96 179.691 286.194 179.457 286.428 179.223C296.152 174.771 297.206 172.194 297.323 171.491C297.323 171.256 297.323 171.022 297.089 170.788C296.269 170.554 291.817 172.076 288.771 173.131C286.428 174.068 283.968 174.771 281.508 175.357C277.876 175.825 266.513 171.725 265.342 171.256C264.873 171.022 264.639 170.554 264.873 170.085C264.99 169.616 265.576 169.382 265.927 169.616C269.325 170.788 278.579 173.951 281.274 173.599C283.617 173.131 285.96 172.428 288.186 171.491C294.512 169.265 297.206 168.562 298.26 169.499C298.846 170.085 299.197 170.905 299.08 171.725C298.729 174.068 295.214 176.88 288.771 180.043C298.26 185.08 316.77 195.272 317.121 197.966C317.121 198.318 317.004 198.669 316.77 198.903C316.301 199.372 315.715 199.489 315.013 199.489Z" fill="#231F20"/>
<path d="M352.5 109.285C348.048 107.879 342.659 106.942 338.91 109.754C337.153 111.276 335.747 113.151 334.81 115.377C332.701 119.477 330.944 123.694 329.421 128.029C329.07 129.2 328.836 130.606 329.773 131.309C330.944 132.129 332.467 130.84 333.17 129.552C334.576 127.326 335.63 124.983 336.333 122.523C334.693 126.037 333.522 129.786 332.819 133.652C332.701 134.12 332.701 134.589 332.819 135.058C333.287 135.878 334.342 136.112 335.162 135.643C335.982 135.175 336.567 134.472 337.036 133.652C339.027 130.372 340.55 126.857 341.839 123.226C340.668 126.974 339.496 130.84 339.613 134.823C339.496 135.526 339.73 136.112 340.199 136.698C340.785 137.166 341.722 137.049 342.308 136.581C342.893 136.112 343.245 135.409 343.596 134.706L348.282 124.866C347.345 128.497 346.759 132.363 346.642 136.112C346.642 136.463 346.642 136.698 346.759 137.049C347.345 138.103 348.868 137.401 349.571 136.463C350.625 134.823 351.328 133.183 351.68 131.309C352.968 126.506 354.023 121.586 355.545 116.782C356.717 112.917 357.186 110.808 352.5 109.285Z" fill="white"/>
<path d="M347.579 138.455H347.462C346.877 138.455 346.291 138.103 345.939 137.518C345.705 137.049 345.705 136.581 345.705 136.112C345.705 134.589 345.822 133.066 346.056 131.543L344.299 135.058C343.948 135.878 343.479 136.581 342.776 137.166C341.839 137.986 340.551 137.986 339.613 137.283C338.91 136.698 338.559 135.76 338.676 134.823C338.676 134.003 338.676 133.066 338.793 132.246C338.442 132.832 338.09 133.418 337.739 134.003C337.27 134.94 336.45 135.76 335.513 136.346C334.81 136.698 333.99 136.698 333.287 136.463C332.702 136.229 332.233 135.878 331.999 135.292C331.764 134.706 331.764 134.003 331.882 133.418C331.999 132.832 332.116 132.246 332.233 131.777C331.882 132.012 331.53 132.246 331.062 132.246C330.476 132.363 329.773 132.246 329.304 131.895C328.484 131.309 327.781 130.137 328.601 127.56C330.124 123.226 331.882 118.891 333.99 114.791C334.927 112.565 336.45 110.574 338.325 108.933C341.605 106.473 346.291 106.239 352.734 108.348C358.357 110.222 357.42 113.385 356.248 117.017C355.311 120.18 354.491 123.46 353.671 126.623C353.203 128.263 352.851 129.903 352.382 131.426C352.031 133.418 351.211 135.175 350.157 136.932C349.571 137.869 348.634 138.455 347.579 138.455ZM348.282 124.046C348.399 124.046 348.517 124.046 348.634 124.163C349.102 124.28 349.337 124.749 349.22 125.217C348.165 128.849 347.697 132.48 347.579 136.229C347.462 136.581 347.697 137.049 348.048 137.166C348.399 137.283 348.868 137.049 348.985 136.698C348.985 136.463 348.985 136.346 348.868 136.112C349.805 134.589 350.508 132.949 350.86 131.192C351.328 129.552 351.68 128.029 352.148 126.389C352.968 123.226 353.788 119.828 354.725 116.665C355.897 112.799 356.131 111.511 352.382 110.222C346.525 108.348 342.425 108.465 339.613 110.574C337.973 111.979 336.685 113.854 335.747 115.845C333.639 119.945 331.882 124.046 330.476 128.38C330.359 128.849 329.89 130.255 330.476 130.723C330.593 130.84 330.827 130.84 330.944 130.84C331.647 130.606 332.35 130.02 332.702 129.317C333.053 128.732 333.404 128.146 333.756 127.443C334.342 125.686 335.045 123.928 335.865 122.288C336.099 121.82 336.567 121.703 337.036 121.937C337.387 122.171 337.622 122.523 337.505 122.991C336.919 124.749 336.333 126.506 335.396 128.146C334.81 130.02 334.225 132.012 333.99 134.003C333.873 134.355 333.873 134.589 333.99 134.94C334.107 135.058 334.107 135.175 334.342 135.175C334.576 135.292 334.927 135.292 335.279 135.175C335.865 134.706 336.45 134.238 336.685 133.535C338.559 130.372 340.199 126.857 341.371 123.343C341.488 122.874 342.073 122.64 342.542 122.757C343.011 122.874 343.245 123.343 343.128 123.811C341.956 127.443 340.785 131.309 340.902 135.058C340.902 135.526 341.019 135.878 341.253 136.229C341.605 136.346 341.956 136.346 342.191 136.112C342.659 135.643 343.011 135.175 343.245 134.589L347.931 124.749C347.579 124.28 347.931 124.046 348.282 124.046Z" fill="#231F20"/>
<path d="M228.557 73.6718C228.557 73.6718 146.319 111.862 146.67 135.058C147.256 164.813 251.401 194.569 251.401 194.569L267.567 163.525L201.144 131.777L250.229 104.95L228.557 73.6718Z" fill="#1D326D"/>
<path d="M192.944 137.166C192.475 137.166 192.006 136.815 192.006 136.346C192.006 135.995 192.241 135.76 192.475 135.526L245.66 106.708C246.129 106.473 246.598 106.591 246.832 107.059C247.066 107.528 246.949 107.996 246.48 108.231L193.295 137.049C193.178 137.049 193.061 137.049 192.944 137.166Z" fill="#231F20"/>
</svg>
