<svg width="62" height="62" viewBox="0 0 62 62" fill="none" xmlns="http://www.w3.org/2000/svg">
<path d="M0 9.92C0 4.44133 4.44134 0 9.92 0H62V52.08C62 57.5587 57.5587 62 52.08 62H9.92C4.44133 62 0 57.5587 0 52.08V9.92Z" fill="#1D326D"/>
<path d="M0 9.92C0 4.44133 4.44134 0 9.92 0H62V52.08C62 57.5587 57.5587 62 52.08 62H9.92C4.44133 62 0 57.5587 0 52.08V9.92Z" fill="white" fill-opacity="0.9"/>
<path d="M43.555 9.41162L52.1792 18.4016V52.5884H19.9624V52.7H52.2892V18.5148L43.555 9.41162Z" fill="#909090"/>
<path d="M43.4481 9.30005H19.8524V52.5884H52.1792V18.4032L43.4481 9.30005Z" fill="white"/>
<path d="M19.6152 11.625H9.71069V22.2068H40.8657V11.625H19.6152Z" fill="#7A7B7C"/>
<path d="M41.0317 22.0271H9.91235V11.4375H41.0317V22.0271Z" fill="#DD2025"/>
<path d="M20.2304 13.2275H18.2046V20.6675H19.798V18.1581L20.1498 18.1782C20.4918 18.1735 20.8307 18.1122 21.1527 17.9969C21.4358 17.9008 21.6959 17.7472 21.9168 17.5458C22.1434 17.3559 22.3214 17.1146 22.4361 16.8421C22.593 16.3906 22.6486 15.9101 22.5988 15.4347C22.59 15.0951 22.5304 14.7586 22.4221 14.4365C22.3245 14.2037 22.1794 13.9939 21.9961 13.8204C21.8127 13.6469 21.5951 13.5136 21.3573 13.429C21.1523 13.3531 20.9398 13.2991 20.7233 13.2678C20.5599 13.2412 20.3945 13.2277 20.2289 13.2275M19.9359 16.7832H19.798V14.4892H20.0971C20.2292 14.4797 20.3616 14.5 20.4848 14.5485C20.6079 14.5971 20.7186 14.6727 20.8086 14.7698C20.9951 15.0194 21.0947 15.3231 21.0922 15.6347C21.0922 16.016 21.0922 16.3616 20.7481 16.605C20.5003 16.7415 20.2181 16.8045 19.9359 16.7832ZM25.626 13.2074C25.4539 13.2074 25.2865 13.2198 25.1687 13.2244L24.7998 13.2337H23.5908V20.6737H25.0137C25.5575 20.6877 26.0987 20.5956 26.6071 20.4025C27.0165 20.2408 27.3789 19.9792 27.6611 19.6414C27.9377 19.3022 28.1352 18.9056 28.2393 18.4805C28.3615 17.9999 28.4209 17.5054 28.416 17.0095C28.4463 16.4239 28.401 15.8368 28.2811 15.2627C28.1664 14.8406 27.954 14.4514 27.6611 14.1265C27.4314 13.8638 27.1489 13.6526 26.8319 13.5065C26.5604 13.3807 26.2747 13.288 25.9809 13.2306C25.8641 13.2115 25.7459 13.2027 25.6275 13.2043M25.3454 19.3066H25.1904V14.5574H25.2106C25.5301 14.5205 25.8535 14.5782 26.1406 14.7233C26.3509 14.8912 26.5222 15.1027 26.6428 15.3433C26.7729 15.5965 26.8479 15.8743 26.8629 16.1586C26.8768 16.4996 26.8629 16.7786 26.8629 17.0095C26.8686 17.2756 26.8515 17.5416 26.8117 17.8047C26.763 18.0745 26.6747 18.3356 26.5498 18.5797C26.4087 18.8073 26.2159 18.9985 25.9871 19.1377C25.796 19.2617 25.5695 19.3194 25.3423 19.302M33.2163 13.2337H29.4498V20.6737H31.0432V17.7225H33.0582V16.3399H31.0432V14.6163H33.2132V13.2337" fill="#464648"/>
<path d="M39.9606 37.5952C39.9606 37.5952 44.902 36.6993 44.902 38.3873C44.902 40.0752 41.8408 39.3886 39.9606 37.5952ZM36.3073 37.7239C35.5221 37.8969 34.7569 38.1509 34.0241 38.4818L34.6441 37.0868C35.2641 35.6918 35.9074 33.79 35.9074 33.79C36.6454 35.0364 37.5063 36.2057 38.4773 37.2806C37.7463 37.3895 37.0219 37.5385 36.3073 37.727V37.7239ZM34.3512 27.6489C34.3512 26.1779 34.827 25.7765 35.1975 25.7765C35.5679 25.7765 35.9849 25.9547 35.9988 27.2319C35.878 28.5162 35.6091 29.7821 35.1975 31.0046C34.6318 29.979 34.3398 28.8248 34.3496 27.6535L34.3512 27.6489ZM27.1452 43.9487C25.6293 43.0419 30.3243 40.2504 31.1752 40.1605C31.1706 40.162 28.7324 44.8973 27.1452 43.9487ZM46.3451 38.5872C46.3296 38.4322 46.1901 36.7164 43.1366 36.7892C41.8638 36.7669 40.5915 36.8567 39.3344 37.0574C38.116 35.8309 37.0671 34.4469 36.2158 32.9421C36.7518 31.391 37.0766 29.7749 37.1815 28.1371C37.1365 26.2771 36.6917 25.2107 35.2657 25.2262C33.8397 25.2417 33.632 26.4895 33.8195 28.3464C34.0031 29.5943 34.3496 30.8126 34.8503 31.9703C34.8503 31.9703 34.1915 34.0209 33.3204 36.0607C32.4493 38.1005 31.8541 39.17 31.8541 39.17C30.3391 39.6626 28.9131 40.3953 27.6304 41.34C26.3532 42.5289 25.8339 43.4418 26.5066 44.3548C27.0863 45.1422 29.1153 45.3204 30.9288 42.9443C31.8907 41.7158 32.7709 40.4255 33.5638 39.0817C33.5638 39.0817 36.329 38.3237 37.1892 38.116C38.0495 37.9083 39.0895 37.744 39.0895 37.744C39.0895 37.744 41.6145 40.2845 44.0495 40.1946C46.4846 40.1047 46.3668 38.7391 46.3513 38.5903" fill="#DD2025"/>
<path d="M43.3287 9.41919V18.5223H52.0599L43.3287 9.41919Z" fill="#909090"/>
<path d="M43.4479 9.30005V18.4032H52.179L43.4479 9.30005Z" fill="#F4F4F4"/>
<path d="M20.1113 13.1084H18.0854V20.5484H19.685V18.0405L20.0384 18.0606C20.3804 18.0559 20.7193 17.9947 21.0413 17.8793C21.3244 17.7832 21.5845 17.6296 21.8054 17.4282C22.0303 17.2378 22.2067 16.9966 22.32 16.7245C22.477 16.2731 22.5325 15.7925 22.4828 15.3171C22.474 14.9775 22.4144 14.641 22.3061 14.3189C22.2085 14.0862 22.0634 13.8763 21.88 13.7028C21.6966 13.5293 21.4791 13.396 21.2412 13.3114C21.0353 13.2348 20.8217 13.1802 20.6042 13.1487C20.4407 13.1221 20.2754 13.1086 20.1097 13.1084M19.8168 16.6641H19.6788V14.3701H19.9795C20.1116 14.3606 20.2441 14.3808 20.3672 14.4294C20.4903 14.478 20.601 14.5536 20.691 14.6506C20.8775 14.9002 20.9771 15.204 20.9746 15.5155C20.9746 15.8968 20.9746 16.2425 20.6305 16.4858C20.3827 16.6224 20.1005 16.6838 19.8183 16.6625M25.5068 13.0882C25.3348 13.0882 25.1674 13.1006 25.0496 13.1053L24.6853 13.1146H23.4763V20.5546H24.8992C25.443 20.5686 25.9842 20.4764 26.4926 20.2833C26.902 20.1217 27.2644 19.86 27.5466 19.5223C27.8232 19.1831 28.0207 18.7865 28.1248 18.3613C28.2471 17.8807 28.3064 17.3863 28.3015 16.8904C28.3318 16.3047 28.2865 15.7176 28.1666 15.1435C28.0519 14.7215 27.8395 14.3323 27.5466 14.0074C27.3169 13.7447 27.0344 13.5334 26.7174 13.3874C26.4459 13.2615 26.1602 13.1689 25.8664 13.1115C25.7497 13.0924 25.6314 13.0835 25.513 13.0851M25.2309 19.1875H25.0759V14.4383H25.0961C25.4157 14.4013 25.739 14.459 26.0261 14.6041C26.2364 14.7721 26.4077 14.9836 26.5283 15.2241C26.6584 15.4773 26.7334 15.7552 26.7484 16.0394C26.7623 16.3804 26.7484 16.6594 26.7484 16.8904C26.7541 17.1564 26.737 17.4224 26.6972 17.6855C26.6485 17.9553 26.5602 18.2165 26.4353 18.4605C26.2942 18.6882 26.1014 18.8793 25.8726 19.0185C25.6816 19.1426 25.455 19.2003 25.2278 19.1828M33.0972 13.1146H29.3307V20.5546H30.9241V17.6034H32.9391V16.2208H30.9241V14.4972H33.0941V13.1146" fill="white"/>
</svg>
