<svg width="234" height="264" viewBox="0 0 234 264" fill="none" xmlns="http://www.w3.org/2000/svg">
<path d="M43.3789 0.148438H0.678711C5.5127 9.54785 14.375 26.7354 18.103 33.9325L54.7068 103.365C55.9987 105.822 59.2453 106.428 61.336 104.603C69.6365 97.3669 79.2571 91.8114 89.6611 88.2038C92.1583 87.3365 93.2888 84.4434 92.0401 82.1137L52.8036 8.30346C48.4814 0.148438 48.4814 0.148438 47.6758 0.148438C46.333 0.148438 44.4531 0.148438 43.3789 0.148438Z" fill="#1D326D"/>
<path d="M191.111 0.148438H233.812C228.978 9.54785 220.115 26.7354 216.387 33.9325L179.783 103.365C178.492 105.822 175.245 106.428 173.154 104.603C164.854 97.3669 155.233 91.8114 144.829 88.2038C142.332 87.3365 141.201 84.4434 142.45 82.1137L181.687 8.30346C186.009 0.148438 186.009 0.148438 186.814 0.148438C188.157 0.148438 190.037 0.148438 191.111 0.148438Z" fill="#1D326D"/>
<path d="M117.764 263.832C169.921 263.832 212.287 221.467 212.287 169.309C212.287 117.152 169.921 74.7866 117.764 74.7866C65.6067 74.7866 23.2095 117.152 23.2095 169.309C23.2095 221.467 65.6067 263.832 117.764 263.832Z" fill="url(#paint0_linear_3479_347)"/>
<path d="M117.764 242.358C158.056 242.358 190.781 209.601 190.781 169.309C190.781 129.018 158.056 96.2604 117.764 96.2604C77.4721 96.2604 44.7148 129.018 44.7148 169.309C44.7148 209.601 77.4721 242.358 117.764 242.358Z" fill="#FFF9C4"/>
<path d="M117.764 233.763C82.1168 233.763 53.311 204.957 53.311 169.309C53.311 133.662 82.1168 104.856 117.764 104.856C153.412 104.856 182.217 133.662 182.217 169.309C182.217 204.957 153.412 233.763 117.764 233.763Z" fill="url(#paint1_linear_3479_347)"/>
<path d="M117.003 139.24C116.274 139.316 115.576 139.578 114.976 140C114.377 140.422 113.895 140.99 113.577 141.65L103.491 162.49L81.8265 144.505C81.123 143.924 80.2529 143.582 79.3421 143.529C78.4313 143.475 77.5272 143.713 76.7606 144.208C75.994 144.702 75.4046 145.428 75.0779 146.28C74.7512 147.132 74.7041 148.065 74.9434 148.946L87.8214 196.207C88.0688 197.119 88.61 197.924 89.3612 198.497C90.1123 199.071 91.0316 199.381 91.9766 199.379H143.52C144.465 199.381 145.384 199.071 146.135 198.497C146.887 197.924 147.428 197.119 147.675 196.207L160.553 148.946C160.783 148.068 160.728 147.14 160.398 146.294C160.067 145.449 159.478 144.73 158.713 144.241C157.949 143.751 157.05 143.516 156.144 143.569C155.238 143.623 154.372 143.961 153.67 144.537L132.165 162.585L121.253 141.555C120.859 140.787 120.243 140.155 119.485 139.742C118.727 139.329 117.862 139.154 117.003 139.24Z" fill="#C79D51"/>
<path d="M117.003 139.24C116.274 139.316 115.576 139.578 114.976 140C114.377 140.422 113.895 140.99 113.577 141.65L103.491 162.49L81.8265 144.505C81.123 143.924 80.2529 143.582 79.3421 143.529C78.4313 143.475 77.5272 143.713 76.7606 144.208C75.994 144.702 75.4046 145.428 75.0779 146.28C74.7512 147.132 74.7041 148.065 74.9434 148.946L87.8214 196.207C88.0688 197.119 88.61 197.924 89.3612 198.497C90.1123 199.071 91.0316 199.381 91.9766 199.379H143.52C144.465 199.381 145.384 199.071 146.135 198.497C146.887 197.924 147.428 197.119 147.675 196.207L160.553 148.946C160.783 148.068 160.728 147.14 160.398 146.294C160.067 145.449 159.478 144.73 158.713 144.241C157.949 143.751 157.05 143.516 156.144 143.569C155.238 143.623 154.372 143.961 153.67 144.537L132.165 162.585L121.253 141.555C120.859 140.787 120.243 140.155 119.485 139.742C118.727 139.329 117.862 139.154 117.003 139.24Z" fill="black" fill-opacity="0.1"/>
<defs>
<linearGradient id="paint0_linear_3479_347" x1="289.562" y1="363.161" x2="-5.13194" y2="339.455" gradientUnits="userSpaceOnUse">
<stop stop-color="#C79D51"/>
<stop offset="1" stop-color="#FCDCA1"/>
</linearGradient>
<linearGradient id="paint1_linear_3479_347" x1="234.901" y1="301.493" x2="33.9884" y2="285.333" gradientUnits="userSpaceOnUse">
<stop stop-color="#C79D51"/>
<stop offset="1" stop-color="#FCDCA1"/>
</linearGradient>
</defs>
</svg>
