<svg width="100" height="100" viewBox="0 0 100 100" fill="none" xmlns="http://www.w3.org/2000/svg">
<g clip-path="url(#clip0_3134_7485)">
<path d="M50.0001 5.55566C41.2098 5.55566 32.617 8.16228 25.3081 13.0459C17.9993 17.9295 12.3027 24.8708 8.93882 32.992C5.57492 41.1131 4.69477 50.0494 6.40967 58.6708C8.12457 67.2922 12.3575 75.2114 18.5732 81.4271C24.7888 87.6427 32.7081 91.8757 41.3294 93.5906C49.9508 95.3055 58.8871 94.4253 67.0083 91.0614C75.1294 87.6975 82.0707 82.001 86.9543 74.6921C91.838 67.3833 94.4446 58.7904 94.4446 50.0001C94.4446 38.2127 89.762 26.9081 81.4271 18.5731C73.0921 10.2382 61.7875 5.55566 50.0001 5.55566ZM79.0279 35.0834L42.5279 71.5557L20.9724 50.0001C20.2356 49.2634 19.8218 48.2642 19.8218 47.2223C19.8218 46.1805 20.2356 45.1813 20.9724 44.4445C21.7091 43.7078 22.7083 43.294 23.7501 43.294C24.792 43.294 25.7912 43.7078 26.5279 44.4445L42.5835 60.5001L73.5279 29.5834C73.8927 29.2187 74.3258 28.9293 74.8024 28.7319C75.279 28.5345 75.7898 28.4328 76.3057 28.4328C76.8216 28.4328 77.3324 28.5345 77.809 28.7319C78.2856 28.9293 78.7187 29.2187 79.0835 29.5834C79.4482 29.9482 79.7376 30.3813 79.935 30.8579C80.1324 31.3345 80.2341 31.8453 80.2341 32.3612C80.2341 32.8771 80.1324 33.3879 79.935 33.8645C79.7376 34.3412 79.4482 34.7742 79.0835 35.139L79.0279 35.0834Z" fill="#16C289"/>
</g>
<defs>
<clipPath id="clip0_3134_7485">
<rect width="100" height="100" fill="white"/>
</clipPath>
</defs>
</svg>
