<svg width="62" height="62" viewBox="0 0 62 62" fill="none" xmlns="http://www.w3.org/2000/svg">
<path d="M0 9.92C0 4.44133 4.44134 0 9.92 0H62V52.08C62 57.5587 57.5587 62 52.08 62H9.92C4.44133 62 0 57.5587 0 52.08V9.92Z" fill="#1D326D"/>
<path d="M0 9.92C0 4.44133 4.44134 0 9.92 0H62V52.08C62 57.5587 57.5587 62 52.08 62H9.92C4.44133 62 0 57.5587 0 52.08V9.92Z" fill="white" fill-opacity="0.9"/>
<path d="M50.6493 10.65H21.0428C20.8 10.6494 20.5595 10.6967 20.3351 10.7892C20.1107 10.8818 19.9067 11.0177 19.7349 11.1892C19.5631 11.3607 19.4269 11.5644 19.334 11.7887C19.2411 12.0129 19.1934 12.2533 19.1936 12.4961V20.725L36.3506 25.7625L52.5 20.725V12.4961C52.5002 12.2532 52.4524 12.0127 52.3595 11.7883C52.2665 11.5639 52.1301 11.3601 51.9581 11.1886C51.7862 11.0171 51.582 10.8812 51.3574 10.7888C51.1328 10.6964 50.8922 10.6492 50.6493 10.65Z" fill="#41A5EE"/>
<path d="M52.5 20.725H19.1936V30.8L36.3506 33.8225L52.5 30.8V20.725Z" fill="#2B7CD3"/>
<path d="M19.1936 30.8V40.875L35.3415 42.89L52.5 40.875V30.8H19.1936Z" fill="#185ABD"/>
<path d="M21.0428 50.95H50.6478C50.8908 50.951 51.1316 50.904 51.3563 50.8117C51.5811 50.7193 51.7855 50.5835 51.9576 50.412C52.1297 50.2404 52.2662 50.0365 52.3593 49.8121C52.4524 49.5876 52.5002 49.347 52.5 49.1039V40.875H19.1936V49.1039C19.1934 49.3467 19.2411 49.5871 19.334 49.8114C19.4269 50.0356 19.5631 50.2394 19.7349 50.4109C19.9067 50.5824 20.1107 50.7183 20.3351 50.8108C20.5595 50.9033 20.8 50.9506 21.0428 50.95Z" fill="#103F91"/>
<path opacity="0.1" d="M31.4727 18.71H19.1936V43.8975H31.4727C31.962 43.895 32.4306 43.6999 32.777 43.3544C33.1234 43.0088 33.3197 42.5407 33.3234 42.0514V20.556C33.3197 20.0667 33.1234 19.5986 32.777 19.2531C32.4306 18.9075 31.962 18.7124 31.4727 18.71Z" fill="black"/>
<path opacity="0.2" d="M30.4637 19.7175H19.1936V44.905H30.4637C30.9529 44.9026 31.4216 44.7075 31.768 44.3619C32.1144 44.0164 32.3107 43.5483 32.3144 43.059V21.5636C32.3107 21.0743 32.1144 20.6062 31.768 20.2606C31.4216 19.9151 30.9529 19.72 30.4637 19.7175Z" fill="black"/>
<path opacity="0.2" d="M30.4637 19.7175H19.1936V42.89H30.4637C30.9529 42.8876 31.4216 42.6925 31.768 42.3469C32.1144 42.0014 32.3107 41.5333 32.3144 41.044V21.5636C32.3107 21.0743 32.1144 20.6062 31.768 20.2606C31.4216 19.9151 30.9529 19.72 30.4637 19.7175Z" fill="black"/>
<path opacity="0.2" d="M29.4546 19.7175H19.1936V42.89H29.4546C29.9439 42.8876 30.4125 42.6925 30.7589 42.3469C31.1053 42.0014 31.3016 41.5333 31.3053 41.044V21.5636C31.3016 21.0743 31.1053 20.6062 30.7589 20.2606C30.4125 19.9151 29.9439 19.72 29.4546 19.7175Z" fill="black"/>
<path d="M10.9508 19.7175H29.4547C29.9449 19.7171 30.4151 19.9113 30.7621 20.2575C31.1092 20.6037 31.3046 21.0734 31.3054 21.5636V40.0365C31.3046 40.5266 31.1092 40.9964 30.7621 41.3426C30.4151 41.6887 29.9449 41.8829 29.4547 41.8825H10.9508C10.7079 41.8834 10.4673 41.8362 10.2427 41.7438C10.0181 41.6513 9.81394 41.5155 9.64198 41.3439C9.47003 41.1724 9.33364 40.9686 9.24065 40.7443C9.14766 40.5199 9.09989 40.2794 9.1001 40.0365V21.5636C9.09989 21.3207 9.14766 21.0802 9.24065 20.8558C9.33364 20.6314 9.47003 20.4277 9.64198 20.2561C9.81394 20.0846 10.0181 19.9487 10.2427 19.8563C10.4673 19.7639 10.7079 19.7167 10.9508 19.7175Z" fill="url(#paint0_linear_3642_24859)"/>
<path d="M16.6949 33.8814C16.7311 34.1666 16.7548 34.4151 16.7662 34.627H16.8096C16.8251 34.4255 16.8587 34.1826 16.9103 33.8985C16.9878 33.4722 17.0064 33.3746 17.0483 33.1777L18.9935 24.7969H21.5107L23.5257 33.0522C23.6421 33.563 23.726 34.0807 23.7768 34.6022H23.8109C23.8496 34.0946 23.9195 33.5899 24.0202 33.0909L25.6306 24.786H27.92L25.0928 36.7954H22.4159L20.4986 28.8501C20.4428 28.6207 20.3798 28.3221 20.3095 27.9542C20.2392 27.5863 20.1958 27.3177 20.1793 27.1482H20.1467C20.125 27.3435 20.0816 27.6334 20.0165 28.0178C19.9514 28.4022 19.8998 28.6874 19.8615 28.8734L18.0589 36.8001H15.3371L12.4944 24.7969H14.8194L16.5724 33.1948C16.6235 33.4217 16.6644 33.6508 16.6949 33.8814Z" fill="white"/>
<defs>
<linearGradient id="paint0_linear_3642_24859" x1="12.9658" y1="18.2667" x2="27.4397" y2="43.3333" gradientUnits="userSpaceOnUse">
<stop stop-color="#2368C4"/>
<stop offset="0.5" stop-color="#1A5DBE"/>
<stop offset="1" stop-color="#1146AC"/>
</linearGradient>
</defs>
</svg>
